<?xml version="1.0" encoding="utf-8"?>
<!-- Generator: Adobe Illustrator 18.1.1, SVG Export Plug-In . SVG Version: 6.00 Build 0)  -->
<svg version="1.1" id="Layer_1" xmlns="http://www.w3.org/2000/svg" xmlns:xlink="http://www.w3.org/1999/xlink" x="0px" y="0px"
	 viewBox="0 0 432 432" enable-background="new 0 0 432 432" xml:space="preserve">
<g>
	<path fill="#59595B" d="M27.9,110c0.6-0.7,1.6-1.6,3-2.9c1.5-1.3,3.4-2.6,5.9-3.9c2.5-1.3,5.6-2.5,9.2-3.5c3.6-1,8-1.5,12.9-1.6
		c6.1-0.1,10.9,0.9,14.7,3c3.7,2.1,6.5,4.8,8.2,8.1c1.7,3.3,2.6,6.9,2.5,10.8c-0.1,3.9-0.9,7.6-2.5,11.1c-1.6,3.5-3.8,6.5-6.8,9
		c-2.9,2.5-6.4,4-10.3,4.4c4.6,0,8.6,1.1,11.9,3.2c3.3,2.2,5.8,4.8,7.6,8c1.8,3.2,2.8,6.7,2.9,10.4c0.2,3.7-0.5,7.2-1.9,10.4
		c-1.5,3.2-3.8,5.9-7.1,8c-3.3,2.2-7.4,3.2-12.5,3.2c-4.5,0-8.3-0.3-11.3-0.9c-3.1-0.6-5.6-1.2-7.5-1.9v1.6
		c-1.7-0.6-3.4-1.2-4.9-1.7c-1.3-0.5-2.7-1-4-1.5c-1.3-0.5-2.3-1-3-1.4c1.2-9,1.9-17.6,2.1-25.8c0.1-8.2,0-15.4-0.4-21.7
		c-0.4-7.4-1.1-14.3-2-20.6l12.9-0.2L47,183.1c1.9,0.7,4.3,1.3,7.2,1.8c2.9,0.5,6.4,0.8,10.8,0.8c2.3,0,4.3-1,5.9-3
		c1.6-2,2.8-4.5,3.5-7.5c0.7-3,0.9-6.3,0.6-9.8c-0.4-3.5-1.4-6.8-3-9.8c-1.7-3-4.1-5.5-7.2-7.5c-3.2-2-7.2-3-12.1-3
		c0-0.7,0.3-1.3,0.9-1.6c0.2-0.2,0.5-0.3,0.9-0.4c3.7,0,6.9-1.1,9.4-3.2c2.5-2.1,4.5-4.7,5.9-7.9c1.4-3.1,2.2-6.6,2.5-10.3
		c0.2-3.7-0.1-7.1-0.9-10.3c-0.9-3.2-2.3-5.8-4.3-7.9c-2-2.1-4.5-3.2-7.6-3.2c-5.1,0-9.4,0.6-13,1.7c-3.6,1.2-6.6,2.4-9,3.9
		c-2.7,1.6-5.1,3.4-7,5.5l-1.2-0.7C28.3,110.3,27.9,110.1,27.9,110z"/>
	<path fill="#59595B" d="M96.6,165.3c1.4-5.1,2.6-10.9,3.5-17.2c1-6.3,1.2-12.9,0.8-19.9c0.7-0.4,1.5-0.8,2.3-1.2
		c0.8-0.4,1.3-0.7,1.4-0.9c0,0.3,0,1.4-0.1,3.1c-0.1,1.7-0.2,4-0.4,6.8c0.8-0.1,2.4-0.3,4.7-0.7c2.3-0.4,4.8-1.1,7.6-2.1
		c2.8-1,5.6-2.3,8.5-4c2.9-1.7,5.4-3.8,7.6-6.5c0.4,0.2,1,0.5,1.6,0.9c0.7,0.5,1.3,0.9,2,1.4c0.8,0.6,1.7,1.2,2.5,2
		c-2.2,10-3.4,19-3.9,26.9c-0.2,3.4-0.2,6.7-0.1,9.9c0.1,3.2,0.6,6.1,1.3,8.6c0.7,2.5,1.8,4.6,3.2,6.1c1.4,1.5,3.2,2.3,5.5,2.3
		c1.7,0,3.2-0.3,4.5-1c1.4-0.7,2.6-1.5,3.7-2.6c1.1-1.1,2-2.3,2.9-3.7c0.8-1.4,1.6-2.8,2.2-4.3c1.5-3.4,2.6-7.3,3.4-11.7l0.9,4
		c-0.7,4.4-1.8,8.3-3.4,11.6c-0.7,1.5-1.5,2.9-2.4,4.3c-1,1.4-2.1,2.6-3.4,3.7c-1.3,1.1-2.8,1.9-4.5,2.6c-1.7,0.7-3.5,1-5.6,1
		c-4.5,0-8.1-0.9-10.9-2.7c-2.8-1.8-4.9-4.2-6.3-7.2c-1.5-2.9-2.4-6.3-2.8-10.1c-0.4-3.8-0.5-7.6-0.3-11.5c0.2-3.9,0.6-7.7,1.2-11.4
		c0.6-3.7,1.1-6.9,1.6-9.8c-1.9,1.2-4,2.3-6.2,3.2c-2.2,0.9-4.3,1.6-6.3,2.1c-2,0.5-3.8,0.9-5.4,1.1c-1.6,0.2-2.8,0.4-3.7,0.4
		c-0.4,4.1-1,8.7-1.8,13.8c-0.8,5.1-2,10.4-3.5,15.9L96.6,165.3z M104.7,126.1l0.1-0.1L104.7,126.1z"/>
	<path fill="#59595B" d="M173.6,123.2c-0.2,1.7-0.6,4.3-1,7.6c-0.4,3.3-0.8,7-1.1,11.1c-0.3,4.1-0.5,8.2-0.6,12.4
		c-0.1,4.2,0.1,8.1,0.4,11.6s1,6.3,2,8.6c1,2.2,2.3,3.4,4,3.4c1.5,0,2.8-0.3,4-0.9c1.2-0.6,2.3-1.4,3.2-2.4c1-1,1.8-2.1,2.5-3.4
		s1.4-2.5,1.9-3.9c1.2-3.1,2.2-6.5,2.9-10.4l0.9,3.6c-1.1,4.8-2.6,9.1-4.5,12.9c-0.8,1.7-1.8,3.3-2.8,4.8c-1,1.5-2.2,2.9-3.6,4.1
		c-1.4,1.2-2.9,2.2-4.5,2.9c-1.6,0.7-3.4,1.1-5.4,1.1c-2.5,0-4.5-0.8-6.1-2.5c-1.6-1.7-2.8-3.8-3.7-6.5c-0.9-2.7-1.6-5.7-1.9-9.1
		c-0.4-3.4-0.6-7-0.6-10.6c0-8.4,0.8-18,2.4-28.7c2-0.9,3.8-1.8,5.3-2.6c1.4-0.7,2.7-1.3,3.9-1.9
		C172.5,123.7,173.2,123.3,173.6,123.2z M164.1,95.9c1.6-1,3.1-1.9,4.6-2.9c1.3-0.7,2.7-1.5,4.2-2.4c1.5-0.8,2.9-1.5,4.1-2
		c-0.7,2-1.2,3.9-1.6,5.8c-0.4,1.9-0.6,3.6-0.8,5.1c-0.2,1.7-0.4,3.4-0.4,5l-11.4,5.5L164.1,95.9z"/>
</g>
<g>
	<path fill="#59595B" d="M207,267.2c3.6,0,6.6-1.1,9.1-3.2c2.5-2.2,4.5-5,6.2-8.6c1.6-3.6,2.9-7.7,3.8-12.3c0.9-4.6,1.6-9.5,2-14.4
		c0.4-5,0.6-9.9,0.7-14.8c0-4.9,0-9.4-0.1-13.6c-0.1-4.1-0.3-7.7-0.4-10.7c-0.2-3-0.2-5.1-0.1-6.2l-30.6,3.2
		c0.2-0.6,0.4-1.2,0.7-1.7c0.2-0.5,0.5-1,0.7-1.5c0.2-0.5,0.6-1,1-1.4c4.4,0.4,8.7,0.6,12.9,0.5c4.2-0.1,8-0.3,11.4-0.7
		c3.4-0.4,6.3-0.8,8.7-1.2c2.4-0.4,4-0.7,4.9-0.9l0.9-0.2c0.7,16.2,0.9,29.9,0.5,41.3c-0.4,11.4-1.7,20.6-3.9,27.8
		c-2.2,7.2-5.5,12.4-9.8,15.7c-4.4,3.3-10.1,5-17.4,5c-6.6,0-11.8-1.4-15.7-4.2c-3.9-2.8-6.3-6.1-7.2-10.1c-0.9-3.9-0.1-8,2.2-12.3
		c2.4-4.3,6.6-7.9,12.6-10.9l4.2,10.2c-2.5,0.7-4.7,1.7-6.7,3.2c-1.9,1.5-3.5,3.1-4.5,5c-1.1,1.9-1.7,3.8-1.9,5.8
		c-0.2,2,0.2,3.8,1.3,5.5c1.1,1.7,2.8,3,5.2,4.1C199.8,266.7,203,267.2,207,267.2z"/>
	<path fill="#59595B" d="M249,238c0-4.2,0.4-8.1,1.3-11.8c0.9-3.6,2.2-6.7,3.9-9.3c1.7-2.6,3.9-4.6,6.5-6.1c2.6-1.4,5.6-2.2,9-2.2
		c3.3,0,6.2,0.7,8.6,2.2c2.4,1.5,4.5,3.5,6.1,6.1c1.6,2.6,2.8,5.7,3.5,9.3c0.7,3.6,1.1,7.5,1.1,11.8c0,0.6,0,1.1-0.1,1.6
		c0,0.5-0.1,1-0.1,1.6l22.9-29.4l9.8-5.7c5.3,9.5,9.3,18.2,12.1,26.2c1.2,3.4,2.1,6.8,2.8,10.3c0.7,3.4,1,6.7,0.7,9.7
		c-0.2,3-1,5.7-2.3,8c-1.3,2.3-3.4,4.1-6.2,5.2c-3.8,1.6-7.2,2.3-10.1,2.1c-2.9-0.2-5.5-0.9-7.6-2.1c-2.1-1.2-3.8-2.9-5.2-4.9
		c-1.3-2-2.3-4.1-2.9-6.3c-0.6-2.2-0.8-4.3-0.7-6.3c0.1-2,0.6-3.6,1.4-4.7l9.5,3.4c-0.8,2.5-1.1,5-0.8,7.6c0.3,2.6,1,4.7,2.1,6.5
		c1.1,1.8,2.6,3,4.5,3.7c1.9,0.7,4,0.5,6.4-0.7c1.7-0.8,2.9-2.2,3.5-4c0.6-1.9,0.7-4,0.4-6.4c-0.3-2.4-1-5-1.9-7.8
		c-1-2.8-2.1-5.6-3.4-8.3c-3.1-6.5-7.1-13.6-12.2-21.3l-23,29.1c-0.4,3.4-1.1,6.6-2.1,9.5c-1,2.9-2.2,5.4-3.7,7.5
		c-1.5,2.1-3.4,3.8-5.7,4.9s-4.8,1.7-7.6,1.7c-3.4,0-6.4-0.8-9-2.4c-2.6-1.6-4.7-3.8-6.5-6.6c-1.7-2.8-3-6-3.9-9.8
		C249.5,246.2,249,242.2,249,238z M260.2,237.6c0,2.6,0.1,5.3,0.3,8.1c0.2,2.8,0.7,5.4,1.6,7.8c0.8,2.4,2,4.3,3.5,5.9
		c1.5,1.6,3.7,2.4,6.4,2.4c5.3,0,9-2.2,11.2-6.5c2.2-4.4,3.2-10.2,3.2-17.6c0-3.6-0.2-6.9-0.7-9.9c-0.5-2.9-1.2-5.4-2.4-7.5
		c-1.1-2-2.6-3.6-4.4-4.7c-1.8-1.1-4.1-1.7-6.7-1.7c-2.7,0-4.9,0.8-6.5,2.4c-1.6,1.6-2.8,3.5-3.6,5.9c-0.8,2.4-1.4,4.9-1.6,7.7
		C260.4,232.6,260.2,235.2,260.2,237.6z"/>
	<path fill="#59595B" d="M388.5,207.2c0.1,0.5-0.1,2.2-0.5,5c-0.4,2.9-0.8,6.3-1.2,10.4c-0.4,4.1-0.8,8.4-1.1,13
		c-0.3,4.6-0.3,8.9,0,12.8c0.3,3.9,1,7.2,2,9.8c1,2.6,2.7,3.9,4.9,3.9c3,0,5.4-1.1,7.3-3.4c1.9-2.3,3.4-4.8,4.5-7.6
		c1.3-3.2,2.3-6.9,3-11.1l0.9,3.6c-1,4.8-2.4,9.1-4.1,12.8c-0.7,1.7-1.6,3.3-2.6,4.8c-1,1.5-2.2,2.9-3.5,4c-1.3,1.2-2.8,2.1-4.4,2.9
		c-1.6,0.7-3.4,1.1-5.3,1.1c-2.7,0-4.8-1-6.5-2.9c-1.7-1.9-3-4.4-3.9-7.5c-0.9-3.1-1.5-6.5-1.9-10.3c-0.3-3.8-0.5-7.6-0.4-11.4
		c0-3.8,0.2-7.4,0.5-10.8c0.3-3.4,0.6-6.2,0.8-8.5c-1.6,2.2-3.4,5.3-5.3,9.1c-2,3.9-3.9,8-5.8,12.3c-1.9,4.4-3.5,8.7-5,13.1
		c-1.5,4.4-2.5,8.1-3,11.3c-0.5,0.5-1.3,1-2.3,1.6c-1,0.5-2.1,1.1-3.2,1.6c-1.2,0.6-2.6,1.2-4.1,1.7v-84l12.3-7.1
		c-0.9,4.4-1.6,9.9-2.1,16.5c-0.5,6.6-0.9,13.6-1.1,20.8c-0.2,7.3-0.3,14.4-0.2,21.6c0,7.1,0.1,13.4,0.3,18.8
		c0.8-3.1,1.9-6.5,3.2-10.3c1.3-3.8,2.9-7.6,4.6-11.4s3.6-7.6,5.7-11.1c2.1-3.6,4.3-6.6,6.6-9.2c1.9-0.9,3.6-1.8,5.1-2.7
		c1.3-0.7,2.5-1.3,3.7-2C387.4,207.8,388.1,207.4,388.5,207.2z"/>
</g>
<g>
	<path fill="#59595B" d="M161.6,268.3c1.5-4.6,2.2-10.4,2.3-17.5c0.1-3.9-0.2-7.1-0.8-9.5c-0.6-2.4-1.5-4.2-2.7-5.6
		c-1.2-1.3-2.7-2.2-4.5-2.7c-1.8-0.5-3.9-0.8-6.4-0.8l0-2l28.3,0.4l0,2c-2.2,0.3-3.9,0.7-5.3,1.1s-2.6,1.2-3.5,2.3
		c-0.9,1.2-1.6,2.8-2,5c-0.4,2.2-0.8,5.3-1,9.3c-0.1,1.9-0.3,4.1-0.6,6.6c-0.3,2.6-0.7,5.2-1.2,8c-0.5,2.7-1.3,5.4-2.2,8.1
		c-0.9,2.6-2.1,5-3.5,7.2l6.3,11.4c0.4,0.7,1,1.5,1.9,2.5c0.9,1,2.2,1.6,3.9,1.6c1.4,0,2.5-0.4,3.4-1.4c0.9-0.9,1.5-2,2.1-3.2
		c0.5-1.2,0.9-2.4,1-3.5c0.2-1.1,0.2-1.9,0.2-2.2c0-0.5,0-0.9-0.1-1.3c0-0.4-0.2-0.8-0.3-1.3l2,0c0.1,0.2,0.2,0.5,0.3,0.9
		c0.1,0.4,0.1,0.9,0.1,1.3c0,0.4-0.1,1.5-0.3,3.4c-0.2,1.9-0.9,3.9-2.1,6.1c-1.2,2.1-3,4-5.5,5.7c-2.5,1.7-6,2.5-10.5,2.5
		c-4.1-0.1-7.3-0.9-9.5-2.6c-2.2-1.7-4.2-3.6-5.8-5.9c-1.4,1.1-2.8,2.1-4.2,3.1c-1.4,1-2.9,1.8-4.7,2.5c-1.7,0.7-3.7,1.3-6,1.7
		c-2.2,0.4-4.9,0.6-7.8,0.6c-7.1-0.1-12.8-1.3-17.2-3.7c-4.4-2.3-7.7-5.1-10.2-8.4c-2.4-3.2-4.1-6.6-4.9-10.1
		c-0.8-3.5-1.2-6.4-1.2-8.8c0.1-4.3,1-8.1,2.7-11.5c1.8-3.4,4-6.4,6.7-9.1c2.7-2.7,5.6-5.2,8.8-7.3c3.2-2.1,6.3-4.1,9.3-6
		c-1.4-3.9-2.5-7.1-3.2-9.5c-0.7-2.4-1.1-4.8-1-7.2c0-2.9,0.7-5.7,1.9-8.3c1.2-2.6,2.8-5,4.8-7.1c2-2.1,4.2-3.7,6.8-5
		c2.5-1.2,5.1-1.8,7.7-1.8c1.8,0,3.4,0.3,5,0.8c1.6,0.5,3,1.4,4.2,2.5c1.2,1.1,2.1,2.6,2.8,4.4s1,4,1,6.7c0,2.8-0.8,5.8-2.4,8.9
		c-1.6,3.1-4.9,6.3-10,9.6l22.9,46.3C158.8,276.2,160.2,272.9,161.6,268.3z M119,241.8c-0.5-1.3-1-2.1-1.2-2.6c-2,1.5-3.7,2.8-5.2,4
		c-1.5,1.2-2.7,2.5-3.7,3.8c-1,1.3-1.7,2.8-2.2,4.4c-0.5,1.6-0.7,3.6-0.8,5.8c0,1.7,0.3,3.9,0.9,6.7c0.6,2.8,1.5,5.7,2.6,8.8
		c1.1,3.1,2.5,6.2,4.1,9.3c1.6,3.1,3.3,5.9,5.2,8.4c1.9,2.5,3.9,4.6,6.1,6.2c2.2,1.6,4.4,2.4,6.6,2.5c2.5,0,4.8-0.5,6.8-1.7
		c2-1.1,4.2-2.6,6.6-4.5c-0.9-1.3-1.6-2.4-2.1-3.3c-0.5-0.9-1-1.9-1.4-2.9l-20.5-41C120.1,244.3,119.6,243,119,241.8z M144.6,209
		c-0.4-1.5-0.9-2.9-1.6-4.1c-0.7-1.2-1.7-2.2-2.8-3c-1.2-0.8-2.6-1.2-4.3-1.2c-0.3,0-0.9,0-1.9,0.1c-1,0.1-2,0.4-3.1,1
		c-1.1,0.6-2,1.6-2.9,2.9c-0.9,1.3-1.3,3.2-1.3,5.6c0,1.4,0.2,2.9,0.6,4.6c0.4,1.6,0.9,3.3,1.6,5.1c0.7,1.7,1.4,3.5,2.3,5.2
		c0.9,1.7,1.7,3.3,2.5,4.7c0.9-0.6,2.1-1.4,3.4-2.3c1.3-0.9,2.6-2,3.8-3.4c1.2-1.3,2.2-2.9,3-4.6c0.8-1.8,1.2-3.8,1.3-6.1
		C145.1,212,145,210.5,144.6,209z"/>
</g>
<g>
	<path fill="#272525" d="M200.2,290.5l5.2-3.1c0.2-0.1,0.5-0.1,0.7,0.1c0.1,0.2,0,0.5-0.2,0.6l-5.2,3.1c-0.1,0-0.1,0-0.2,0
		c-0.1,0-0.3,0-0.4-0.2C199.9,291,199.9,290.7,200.2,290.5z M205.2,287.8c0-0.2,0.2-0.5,0.4-0.5c0.3,0,0.5,0.3,0.5,0.5v25.1
		c0,0.3-0.2,0.5-0.5,0.5c-0.2,0-0.4-0.2-0.4-0.5V287.8z"/>
	<path fill="#272525" d="M224.4,287.3c5.1,0,8.9,6,8.9,13c0,7.1-3.8,13.1-8.9,13.1c-5,0-8.9-6-8.9-13.1
		C215.6,293.3,219.4,287.3,224.4,287.3z M216.5,300.3c0,3.4,1,6.5,2.4,8.7c1.5,2.2,3.4,3.5,5.5,3.5c2.1,0,4.1-1.3,5.6-3.5
		c1.5-2.2,2.4-5.2,2.4-8.7c0-3.4-0.9-6.4-2.4-8.6c-1.5-2.2-3.4-3.5-5.6-3.5c-2.1,0-4.1,1.3-5.5,3.5
		C217.5,293.9,216.5,297,216.5,300.3z"/>
	<path fill="#272525" d="M245.1,311.2c0.7,0,1.3,0.6,1.3,1.3s-0.6,1.3-1.3,1.3c-0.7,0-1.3-0.6-1.3-1.3S244.4,311.2,245.1,311.2z"/>
	<path fill="#272525" d="M250.8,290.5l5.2-3.1c0.2-0.1,0.5-0.1,0.7,0.1c0.1,0.2,0,0.5-0.2,0.6l-5.2,3.1c-0.1,0-0.1,0-0.2,0
		c-0.1,0-0.3,0-0.4-0.2C250.5,291,250.5,290.7,250.8,290.5z M255.8,287.8c0-0.2,0.2-0.5,0.4-0.5c0.3,0,0.5,0.3,0.5,0.5v25.1
		c0,0.3-0.2,0.5-0.5,0.5c-0.2,0-0.4-0.2-0.4-0.5V287.8z"/>
	<path fill="#272525" d="M270.1,312.7l10.3-24.4h-13.8c-0.3,0-0.5-0.2-0.5-0.5c0-0.2,0.2-0.5,0.5-0.5h14.5c0.2,0,0.5,0.3,0.5,0.5
		c0,0.1-0.1,0.2-0.1,0.3l-10.5,25c0,0.1-0.2,0.3-0.4,0.3c0,0-0.1,0-0.2,0C270.1,313.3,270,313,270.1,312.7z"/>
	<path fill="#272525" d="M288.1,311.2c0.7,0,1.3,0.6,1.3,1.3s-0.6,1.3-1.3,1.3c-0.7,0-1.3-0.6-1.3-1.3S287.4,311.2,288.1,311.2z"/>
	<path fill="#272525" d="M293.7,290.5l5.2-3.1c0.2-0.1,0.5-0.1,0.7,0.1c0.1,0.2,0,0.5-0.2,0.6l-5.2,3.1c-0.1,0-0.1,0-0.2,0
		c-0.1,0-0.3,0-0.4-0.2C293.4,291,293.5,290.7,293.7,290.5z M298.7,287.8c0-0.2,0.2-0.5,0.4-0.5c0.3,0,0.5,0.3,0.5,0.5v25.1
		c0,0.3-0.2,0.5-0.5,0.5c-0.2,0-0.4-0.2-0.4-0.5V287.8z"/>
	<path fill="#272525" d="M309.1,310.8c-0.2-0.1-0.2-0.5,0-0.7s0.5-0.2,0.7,0c1.5,1.5,3.5,2.3,5.4,2.3c2,0,4-0.8,5.5-2.3
		c1.5-1.5,2.3-3.5,2.3-5.5c0-1.9-0.7-4-2.3-5.4c-1.5-1.5-3.4-2.2-5.4-2.2c-2,0-3.9,0.7-5.5,2.2c-0.1,0.2-0.4,0.2-0.6,0
		c0,0-0.1,0-0.1-0.1c0,0,0,0,0,0c-0.1-0.1-0.1-0.2-0.1-0.4l1.3-11c0-0.2,0.2-0.4,0.3-0.4c0.1,0,0.1-0.1,0.3-0.1h12.6
		c0.3,0,0.5,0.3,0.5,0.5c0,0.3-0.2,0.5-0.5,0.5h-12.3l-1.1,9.5c1.5-1.2,3.4-1.7,5.2-1.7c2.2,0,4.5,0.8,6.2,2.5
		c1.6,1.7,2.5,3.9,2.5,6.1c0,2.2-0.9,4.5-2.6,6.2c-1.7,1.7-3.9,2.6-6.2,2.6C313.1,313.4,310.8,312.6,309.1,310.8z"/>
</g>
<g>
	<path fill="#59595B" d="M367,286.5C344.4,352,283.4,398.7,214,402.2c-65.5,3.3-128.6-32.5-159.7-90.2
		c-18.2-33.7-24.6-72.7-17.1-110.3c0.2-1.2-2.7-0.8-2.9,0.3c-13.6,67.5,18.9,137.9,76.4,174.8c57.4,36.8,133.5,36,190.4-1.7
		c32-21.2,56.2-52.7,68.7-89C370.3,285.1,367.3,285.5,367,286.5L367,286.5z"/>
</g>
<g>
	<path fill="#59595B" d="M85.3,91.4c17-17,37.4-30,60.4-37.2C169,47,194,45,218.2,46.8c44.5,3.3,87.9,22.4,117.9,55.8
		c16.2,18,27.7,39.7,33.8,63.1c0.4,1.6,2.8,0.9,2.4-0.7c-11.2-42.9-40.7-78.6-79.7-99.5c-42.2-22.6-94.4-27.9-140.6-15.7
		c-26.2,6.9-49.4,20.7-68.5,39.8C82.4,90.8,84.2,92.6,85.3,91.4L85.3,91.4z"/>
</g>
</svg>
